HIERARCHY
ROOT Hips
{
  OFFSET 44.3025 97.4448 -119.213
  CHANNELS 6 Xposition Yposition Zposition Zrotation Xrotation Yrotation
  JOINT RightUpLeg
  {
    OFFSET -8.9458 -8.66707 0.101652
    CHANNELS 3 Zrotation Xrotation Yrotation
    JOINT RightLeg
    {
      OFFSET 0 -44.4227 1.3727
      CHANNELS 3 Zrotation Xrotation Yrotation
      JOINT RightFoot
      {
        OFFSET 0.253549 -42.0924 -1.46059
        CHANNELS 3 Zrotation Xrotation Yrotation
        JOINT RightToes
        {
          OFFSET 0.04 -4.41509 8.4991
          CHANNELS 3 Zrotation Xrotation Yrotation
          End Site
          {
            OFFSET -0.08 -0.137448 9.77979
          }
        }
      }
    }
  }
  JOINT Spine
  {
    OFFSET 0 11.8905 0
    CHANNELS 3 Zrotation Xrotation Yrotation
    JOINT Spine1
    {
      OFFSET 0 25.6574 0.127663
      CHANNELS 3 Zrotation Xrotation Yrotation
      JOINT HEad
      {
        OFFSET 0 8.73416 0.011341
        CHANNELS 3 Zrotation Xrotation Yrotation
        End Site
        {
          OFFSET -0.29 12.7742 2.51395
        }
      }
      JOINT LeftShoulder1
      {
        OFFSET 8.99 -0.362252 -0.22
        CHANNELS 3 Zrotation Xrotation Yrotation
        JOINT LeftArm
        {
          OFFSET 10.2827 -0.00338 0.322123
          CHANNELS 3 Zrotation Xrotation Yrotation
          JOINT LeftForeArm
          {
            OFFSET 32.7669 0.099144 -1.42434
            CHANNELS 3 Zrotation Xrotation Yrotation
            JOINT LeftHand
            {
              OFFSET 27.5643 0.085362 1.02216
              CHANNELS 3 Zrotation Xrotation Yrotation
              End Site
              {
                OFFSET 16.7443 -0.6 1.50291
              }
            }
          }
        }
      }
      JOINT RightShoulder
      {
        OFFSET -8.99 -0.362252 -0.22
        CHANNELS 3 Zrotation Xrotation Yrotation
        JOINT RightArm
        {
          OFFSET -10.2827 -0.00338 0.322123
          CHANNELS 3 Zrotation Xrotation Yrotation
          JOINT RightForeArm
          {
            OFFSET -32.8971 0.099144 -1.42434
            CHANNELS 3 Zrotation Xrotation Yrotation
            JOINT RightHand
            {
              OFFSET -27.4921 0.085362 1.02216
              CHANNELS 3 Zrotation Xrotation Yrotation
              End Site
              {
                OFFSET -16.6312 -0.6 1.50291
              }
            }
          }
        }
      }
    }
  }
  JOINT LeftUpLeg
  {
    OFFSET 8.9458 -8.66707 0.101652
    CHANNELS 3 Zrotation Xrotation Yrotation
    JOINT LeftLeg
    {
      OFFSET 0 -44.4227 1.3727
      CHANNELS 3 Zrotation Xrotation Yrotation
      JOINT LeftFoot
      {
        OFFSET -0.253549 -42.0924 -1.46059
        CHANNELS 3 Zrotation Xrotation Yrotation
        JOINT LeftToes
        {
          OFFSET -0.04 -4.41509 8.4991
          CHANNELS 3 Zrotation Xrotation Yrotation
          End Site
          {
            OFFSET 0.08 -0.047448 9.77979
          }
        }
      }
    }
  }
}
MOTION
Frames:	12
Frame Time:	0.0166667
38.9062 75.353 -127.15 6.16193 -39.4872 -36.0648 -51.1638 -0.988588 -34.4664 -68.4165 39.2144 37.5857 80.8892 49.4328 -36.4563 0.0462049 0.000533403 0.662642 -9.44797 44.0721 13.2932 0.0109483 0.0167797 -0.00566114 -35.5532 25.3408 39.0629 5.66536e-015 -3.57812e-015 -0 -139.551 -32.1901 -77.0137 -96.9409 45.7214 -35.3343 20.4281 1.79854 -73.278 13.906 17.1772 14.9931 77.9477 17.6941 74.9111 73.2746 20.2805 45.639 -4.79636 19.7745 46.526 -6.87751 -5.22315 26.7256 33.2649 50.1688 -17.5141 -11.216 -3.35598 2.19692 -2.9187e-009 1.56015e-007 -4.87132e-009 
39.6524 75.1738 -126.736 6.30281 -39.41 -35.7428 -52.8394 -1.38234 -34.099 -69.2034 40.498 36.599 85.8788 49.0041 -39.2842 0.0462049 0.000533403 0.662642 -9.55308 43.6985 12.7934 0.00968156 0.0155516 -0.00537512 -35.3671 25.2893 39.6278 -1.2921e-015 3.18055e-015 3.18055e-015 -139.336 -32.7755 -76.88 -96.9388 45.8298 -35.3408 20.362 1.65911 -73.2019 14.0398 17.6825 15.3719 77.698 17.4475 74.8515 73.3224 20.334 45.7939 -4.71615 19.8774 46.4421 -7.98711 -5.58791 26.2701 32.874 50.2223 -16.1304 -10.5649 -3.19305 2.20034 -2.9187e-009 1.56015e-007 -4.87132e-009 
40.4981 74.9734 -126.271 6.51216 -39.2597 -35.4161 -54.7559 -1.24246 -33.8539 -68.4101 41.7668 33.4241 90.4786 49.7404 -42.5288 0.0462049 0.000533403 0.662642 -9.61629 43.431 12.3368 0.00832399 0.0145322 -0.00510278 -35.2402 25.109 40.0186 -2.08724e-015 -7.95139e-016 -0 -139.27 -33.1661 -76.8511 -96.9529 45.8909 -35.3387 20.3067 1.63963 -73.1843 14.0269 17.988 15.7115 77.4539 17.2255 74.8827 73.3372 20.3471 45.9339 -4.61823 19.9009 46.4736 -8.90866 -6.08601 25.9109 31.7899 50.5997 -14.0824 -9.37037 -3.22255 2.00649 -2.91871e-009 1.56015e-007 -4.87132e-009 
41.4133 74.8052 -125.681 6.76363 -39.0391 -35.0893 -57.0022 -0.0696168 -33.7953 -64.4127 42.8518 26.4781 94.1582 51.7453 -45.6043 0.0462049 0.000533403 0.662642 -9.63053 43.2548 11.9178 0.00696643 0.0136967 -0.00484363 -35.1553 24.8137 40.2503 -8.82781e-032 -1.59028e-015 -3.18055e-015 -139.324 -33.3792 -76.9157 -96.9536 45.9158 -35.3423 20.2943 1.61034 -73.0959 13.907 18.1208 16.0049 77.2208 17.023 74.9903 73.3354 20.3312 46.0575 -4.58418 19.9179 46.4495 -9.60734 -7.04346 25.4377 32.9017 51.7965 -14.5821 -9.32039 -3.74196 2.36296 -2.9187e-009 1.56015e-007 -4.87132e-009 
42.335 74.792 -125.092 7.03938 -38.7628 -34.7598 -58.4059 0.914589 -33.3325 -61.8816 43.3557 20.1344 99.8036 53.1657 -50.8586 0.0462049 0.000533403 0.662642 -9.59806 43.1617 11.5289 0.00569976 0.0130199 -0.00459718 -35.1003 24.423 40.3404 -1.98785e-016 3.97569e-016 -3.18055e-015 -139.474 -33.4408 -77.0585 -96.9264 45.915 -35.3539 20.2914 1.64666 -73.0751 13.7188 18.1097 16.2565 76.9995 16.8301 75.1512 73.3303 20.2923 46.1606 -4.50956 19.8797 46.4866 -10.15 -7.76595 25.1539 32.1122 52.6695 -13.1984 -8.26812 -4.07889 2.27884 -2.91871e-009 1.56015e-007 -4.87132e-009 
43.2169 74.8633 -124.387 7.3326 -38.4367 -34.4268 -59.3038 1.42462 -32.9261 -59.2508 43.6303 17.9163 99.2636 53.3958 -50.6536 0.0462049 0.000533403 0.662642 -9.52859 43.1324 11.1711 0.00462997 0.0124767 -0.00436295 -35.0655 23.9555 40.3057 1.59028e-015 2.38542e-015 -3.18055e-015 -139.697 -33.3788 -77.2719 -96.8652 45.8862 -35.3791 20.299 1.6592 -73.0507 13.4852 17.98 16.4806 76.7977 16.6436 75.3481 73.3223 20.2277 46.2437 -4.44836 19.8392 46.4961 -10.4012 -8.381 25.0745 30.3293 53.6506 -11.0353 -6.69057 -4.60299 1.97814 -2.9187e-009 1.56015e-007 -4.87131e-009 
44.0777 75.0817 -123.667 7.63153 -38.058 -34.1006 -60.2857 1.89575 -32.6926 -56.4541 43.4582 16.0682 98.9859 53.1401 -50.2873 0.0462049 0.000533403 0.662642 -9.43083 43.1445 10.8561 0.00396771 0.0120423 -0.00414047 -35.0411 23.4258 40.1625 1.98785e-015 3.97569e-016 3.18055e-015 -139.978 -33.2161 -77.5566 -96.7768 45.8224 -35.4156 20.2917 1.69881 -73.0988 13.2116 17.7537 16.6959 76.6319 16.4695 75.5739 73.3017 20.1357 46.3111 -4.35681 19.7787 46.5553 -10.5132 -9.12582 24.9654 30.3598 54.8869 -11.0104 -6.17889 -5.21902 2.13206 -2.9187e-009 1.56015e-007 -4.87132e-009 
44.925 75.3922 -122.967 7.90771 -37.6234 -33.7958 -60.9439 2.2658 -32.1166 -54.5991 43.3728 14.4469 99.5739 52.9355 -51.133 0.0462049 0.000533403 0.662642 -9.30018 43.183 10.5912 0.00335515 0.0116915 -0.00392924 -35.0162 22.8468 39.9277 -1.59028e-015 1.59028e-015 -3.18055e-015 -140.302 -32.9721 -77.9167 -96.6736 45.7174 -35.4574 20.281 1.71892 -73.1636 12.8955 17.4519 16.9172 76.523 16.3247 75.8315 73.2523 20.0173 46.3704 -4.26716 19.7319 46.6054 -10.7322 -9.82135 24.774 30.9378 55.865 -11.523 -6.02648 -5.63421 2.43166 -2.91871e-009 1.56015e-007 -4.87131e-009 
45.8537 75.9814 -122.163 8.14906 -37.1147 -33.5002 -61.3336 3.74721 -31.3189 -49.788 42.2778 9.80937 99.903 53.5231 -52.2238 0.0462049 0.000533403 0.662642 -9.12669 43.2218 10.3727 0.00278965 0.0113993 -0.00372878 -34.969 22.2253 39.6064 5.96354e-016 -7.95139e-016 3.18055e-015 -140.689 -32.6434 -78.4229 -96.5185 45.5265 -35.5701 20.3192 1.80344 -73.2459 12.4136 17.0929 17.2465 76.5914 16.214 76.1977 73.1345 19.8407 46.438 -3.9805 19.6753 46.6058 -11.1506 -10.0744 24.6713 28.5746 55.9425 -8.71408 -4.38029 -5.71896 2.20278 -2.9187e-009 1.56015e-007 -4.87131e-009 
46.8214 76.6952 -121.318 8.55683 -34.5217 -32.7197 -60.3169 5.36881 -32.0282 -43.6584 40.2512 3.48143 100.777 54.4552 -54.0761 0.0462049 0.000533403 0.662642 -7.37584 41.5208 9.35226 0.00226855 0.0111408 -0.00353861 -34.91 21.5866 39.2215 -5.76476e-015 2.38542e-015 6.36111e-015 -141.125 -32.2669 -79.0177 -96.3844 45.3211 -35.6819 20.3081 1.90694 -73.2435 11.9127 16.6941 17.5681 76.7118 16.2077 76.6089 72.9696 19.6512 46.4902 -3.69637 19.7103 46.6395 -10.6784 -11.744 23.9818 24.6937 55.4653 -4.38049 -2.0417 -5.72639 1.70822 -2.9187e-009 1.56015e-007 -4.87132e-009 
46.5189 76.8013 -122.49 8.84883 -32.3032 -32.0353 -58.1913 4.85412 -32.0057 -41.777 41.6567 1.88588 98.8709 52.8463 -50.9677 0.0462049 0.000533403 0.662642 -5.93701 40.1284 8.5745 0.00178919 0.0108908 -0.00335824 -34.8361 20.943 38.7876 3.97569e-015 3.18055e-015 -0 -141.58 -31.8833 -79.6372 -96.3067 45.1636 -35.7879 20.4007 2.06816 -73.1361 11.4193 16.2782 17.8578 76.845 16.2862 77.0337 72.7843 19.5008 46.5287 -3.30639 19.7895 46.5834 -8.52087 -14.1476 22.8027 22.552 55.7797 -2.65896 -1.72371 -4.5176 1.34229 -2.9187e-009 1.56015e-007 -4.87132e-009 
46.195 77.1222 -123.64 9.02692 -30.4107 -31.43 -56.18 4.45269 -31.4621 -39.3628 43.0644 -0.105597 97.1146 51.1719 -48.0259 0.0462049 0.000533403 0.662642 -4.72614 39.0035 7.98436 0.00134892 0.0106243 -0.0031872 -34.7386 20.2945 38.3142 -2.38542e-015 7.95139e-016 9.54166e-015 -142.025 -31.525 -80.2454 -96.2809 45.0966 -35.8953 20.5691 2.27619 -72.8829 10.9222 15.8473 18.1111 76.9847 16.417 77.4571 72.5871 19.4338 46.5537 -3.00006 19.9708 46.5151 -6.58681 -16.0418 21.7441 20.708 55.6293 -1.3584 -1.887 -3.06785 1.07261 -2.9187e-009 1.56015e-007 -4.87132e-009 
